<?xml version="1.0"?>
<svg version="1.1" xmlns="http://www.w3.org/2000/svg" width="285" height="70" style=""><path fill="#5dade2" d="M16.4296875,26.3984375q0-1.640625,0.5625-2.203125t1.5703125-0.5625q0.28125,0,0.59765625,0.046875t0.59765625,0.140625q1.5703125-0.3046875,2.9765625-0.3046875q2.2734375,0,4.125,0.796875q2.9765625,1.265625,4.921875,3.75t2.859375,5.8359375t0.9140625,6.8671875q0,1.96875-0.26953125,4.1015625t-1.04296875,3.9609375q-0.6796875,1.640625-1.875,3.43359375t-2.70703125,3.3984375t-3.2578125,2.8125t-3.52734375,1.62890625l0,0.1875q0,0.46875-0.24609375,0.76171875t-0.59765625,0.4453125t-0.80859375,0.19921875t-0.85546875,0.046875q-0.234375,0-0.66796875-0.046875t-0.84375-0.17578125t-0.69140625-0.33984375t-0.28125-0.5859375q0-4.265625-0.22265625-8.54296875t-0.50390625-8.5546875t-0.50390625-8.54296875t-0.22265625-8.5546875z M20.859375,25.203125q0.234375,2.25,0.3046875,4.48828125t0.2109375,4.48828125q0.375,5.8125,0.8671875,11.56640625t0.5859375,11.56640625q2.25-1.4765625,3.85546875-3.375t2.63671875-4.125t1.51171875-4.67578125t0.48046875-5.05078125q0-1.875-0.328125-4.125t-1.125-4.3359375t-2.14453125-3.7734375t-3.36328125-2.4140625q-0.421875-0.140625-1.01953125-0.234375t-1.91015625-0.09375q-0.140625,0-0.28125,0.046875t-0.28125,0.046875z M40.328203125,49.6953125q0-2.15625,0.50390625-4.23046875t0.85546875-4.13671875q0.09375-0.5390625,0.73828125-0.66796875t1.08984375-0.12890625q0.7734375,0,1.2421875,0.234375q0.1875,0.09375,0.3515625,0.2109375t0.1640625,0.3046875q0,2.015625-0.48046875,3.9375t-0.48046875,4.078125q0,0.7265625,0.10546875,1.37109375t0.19921875,1.27734375l0.140625,0.6796875q0,0.1875,0.0234375,0.328125t0.0703125,0.328125q0,0.421875-0.59765625,0.57421875t-1.04296875,0.15234375q-0.6796875,0-1.25390625-0.26953125t-0.90234375-0.92578125l-0.328125-0.6796875q-0.28125-0.5390625-0.28125-1.20703125t-0.1171875-1.23046875z M41.828203125,35.5859375l0-0.4453125q0-1.1015625,0.55078125-1.96875t1.65234375-0.8671875q0.140625,0,0.26953125,0.0234375t0.26953125,0.0234375q0.28125,0.046875,0.73828125,0.22265625t0.45703125,0.55078125l0,0.046875q-0.09375,0.1875-0.1171875,0.38671875t-0.1171875,0.33984375l0.046875-0.046875q-0.28125,0.7265625-0.45703125,1.171875t-0.38671875,0.71484375t-0.52734375,0.38671875t-0.90234375,0.1171875q-0.09375,0-0.328125-0.0234375t-0.50390625-0.09375t-0.45703125-0.1875t-0.1875-0.3515625z M50.58609375,50.375l0-0.6796875q0-0.84375,0.046875-1.59375q0.046875-1.0546875,0.046875-1.734375q0-0.375,0.046875-0.85546875t0.234375-0.76171875q0.234375-0.234375,0.55078125-0.48046875t0.69140625-0.24609375q1.1953125,0,1.875,0.26953125t0.7265625,1.11328125l0.09375,0.7265625q0.421875-1.0078125,1.125-2.49609375t1.62890625-2.8359375t2.0859375-2.296875t2.44921875-0.94921875q1.1953125,0,1.96875,1.125t1.23046875,2.87109375t0.64453125,3.890625t0.2578125,4.20703125t0.09375,3.76171875t0.1640625,2.56640625q0.09375,0.7265625,0.31640625,1.53515625t0.22265625,1.48828125q0,0.1875-0.26953125,0.36328125t-0.57421875,0.29296875t-0.62109375,0.1875t-0.45703125,0.0703125q-0.9140625,0-1.30078125-1.37109375t-0.48046875-3.43359375t-0.09375-4.46484375t-0.1640625-4.46484375t-0.66796875-3.43359375t-1.60546875-1.41796875q-1.0078125,0-2.0859375,1.30078125t-1.8515625,3.45703125q-0.75,2.15625-1.03125,4.8984375q-0.09375,0.8671875-0.09375,1.734375q0,1.8984375,0.3984375,3.796875q0.046875,0.328125-0.26953125,0.4921875t-0.78515625,0.2578125t-0.94921875,0.1171875t-0.73828125,0.0234375q-0.9140625,0-1.46484375-0.64453125t-0.85546875-1.65234375t-0.41015625-2.26171875t-0.12890625-2.47265625z M71.414296875,50.703125q0-1.3359375,0.33984375-2.75390625t1.078125-2.5546875t1.86328125-1.8515625t2.71875-0.71484375q1.1953125,0,2.51953125,0.41015625t2.42578125,1.171875t1.79296875,1.86328125t0.69140625,2.4609375q0,1.640625-0.59765625,3.1171875t-1.67578125,2.63671875t-2.51953125,1.828125t-3.12890625,0.66796875q-1.3828125,0-2.4140625-0.50390625t-1.72265625-1.34765625t-1.03125-1.9921875t-0.33984375-2.4375z M74.859609375,50.65625q0,0.421875,0.12890625,1.2421875t0.38671875,1.60546875t0.66796875,1.359375t0.99609375,0.52734375q1.2421875-0.140625,2.05078125-0.80859375t1.3125-1.62890625t0.703125-2.0859375t0.19921875-2.1328125q0-1.2890625-0.50390625-2.15625t-1.65234375-1.40625q0,0.046875,0.046875,0.046875t0.046875-0.046875l-0.5859375-0.140625q-0.234375-0.09375-0.57421875-0.2109375t-0.66796875-0.515625q-0.9140625,0.328125-1.41796875,0.84375t-0.76171875,1.25390625t-0.31640625,1.76953125t-0.05859375,2.484375z M89.1721875,44.2109375q0-0.9609375,0.5625-1.65234375t1.37109375-1.125t1.76953125-0.64453125t1.78125-0.2109375q0.6328125,0,1.6875,0.1875t2.0625,0.5625t1.74609375,0.984375t0.73828125,1.4296875q0,0.375-0.28125,0.66796875t-0.5859375,0.29296875q-0.6328125,0-1.1484375-0.41015625t-1.06640625-0.8671875t-1.20703125-0.8671875t-1.4765625-0.41015625t-1.48828125,0.52734375t-0.66796875,1.39453125q0,1.4296875,1.0078125,2.80078125t2.21484375,2.8828125t2.21484375,3.17578125t1.0078125,3.6796875q0,0.8671875-0.36328125,1.46484375t-0.9609375,0.97265625t-1.34765625,0.57421875t-1.453125,0.19921875q-0.7734375,0-1.8046875-0.36328125t-1.9453125-0.9609375t-1.53515625-1.39453125t-0.62109375-1.6640625q0-0.421875,0.59765625-0.5390625t0.87890625-0.1171875q0.140625,0,0.43359375,0.09375t0.57421875,0.2109375t0.50390625,0.2578125t0.17578125,0.3046875q0.234375,0.28125,0.71484375,0.83203125t0.9609375,0.890625t0.84375,0.24609375t0.36328125-1.0546875q0-1.828125-0.984375-3.36328125t-2.14453125-3t-2.14453125-2.90625t-0.984375-3.08203125z M105.687890625,50.2578125q0-1.59375,0.43359375-3.0703125t1.30078125-2.63671875t2.16796875-1.8515625t3.01171875-0.69140625q1.0546875,0,2.33203125,0.31640625t2.40234375,0.9375t1.875,1.58203125t0.75,2.203125q0,0.5859375-0.19921875,0.890625t-0.80859375,0.3046875l-0.2578125-0.046875q0.6796875,1.828125,1.171875,3.75t0.9609375,3.84375q0.1875,0.375,0.28125,0.66796875t0.09375,0.57421875q0,0.375-0.2109375,0.62109375t-0.55078125,0.36328125t-0.703125,0.1640625t-0.64453125,0.046875q-1.0078125,0-1.51171875-0.3515625t-0.7265625-0.9609375t-0.26953125-1.37109375t-0.1875-1.53515625q-0.28125,0.9140625-0.73828125,1.78125t-1.078125,1.55859375t-1.46484375,1.1015625t-1.8984375,0.41015625q-1.546875,0-2.6015625-0.890625t-1.69921875-2.19140625t-0.9375-2.77734375t-0.29296875-2.7421875z M109.016015625,49.9296875q0,0.8671875,0.1171875,1.828125t0.38671875,1.8984375t0.69140625,1.76953125t1.0546875,1.46484375q1.1484375-1.2421875,1.69921875-3.0234375t0.984375-3.43359375t0.984375-2.8359375t1.69921875-1.18359375q0.7265625,0,1.21875,0.2578125q-0.234375-0.5859375-0.7734375-1.13671875t-1.20703125-1.0078125t-1.3828125-0.75t-1.34765625-0.29296875q-0.1875,0-0.43359375,0.05859375t-0.38671875,0.01171875q-0.9609375,0.28125-1.58203125,0.97265625t-1.0078125,1.62890625t-0.55078125,1.921875t-0.1640625,1.8515625z M125.03953125,48.1953125q0-0.46875,0.10546875-1.2421875t0.24609375-1.53515625t0.328125-1.41796875t0.4453125-0.84375q0.1875-0.1875,0.64453125-0.375t0.9609375-0.26953125t0.9375,0.0703125t0.52734375,0.62109375q-0.328125,0.421875-0.59765625,1.44140625t-0.41015625,2.26171875q-0.1171875,1.0546875-0.1171875,2.1796875l0,0.3984375q0.0234375,1.3125,0.234375,2.4140625t0.64453125,1.81640625t1.20703125,0.71484375q1.640625,0,3-1.51171875t2.4140625-3.69140625t1.8515625-4.62890625t1.359375-4.27734375q0.140625-0.5390625,0.66796875-0.7265625t1.13671875-0.12890625t1.08984375,0.29296875t0.57421875,0.5625q-0.46875,3.9375-0.73828125,7.875t-0.26953125,7.921875q0,0.7734375,0.0703125,1.41796875t-0.0703125,1.1015625t-0.62109375,0.7265625t-1.53515625,0.26953125q-0.234375,0-0.59765625-0.046875t-0.75-0.15234375t-0.65625-0.31640625t-0.26953125-0.4921875q0-1.734375,0.12890625-3.5625t0.36328125-3.5390625q-0.6328125,0.9140625-1.39453125,1.81640625t-1.67578125,1.62890625t-1.96875,1.16015625t-2.2734375,0.43359375q-1.734375,0-2.73046875-0.8203125t-1.5-2.05078125t-0.6328125-2.68359375t-0.12890625-2.8125z M147.086484375,43.6953125q0-0.9609375,0.33984375-1.6171875t1.44140625-0.65625q0.421875,0,1.0546875,0.12890625t0.7265625,0.64453125q0.234375,1.3828125,0.2578125,3t0.1640625,3.046875q0.5390625-1.0546875,1.3828125-2.2734375t1.921875-2.25t2.34375-1.7109375t2.578125-0.6796875q0.09375,0,0.3515625,0.0703125t0.48046875,0.19921875t0.26953125,0.29296875t-0.2578125,0.3046875q-0.09375,0.28125-0.3984375,0.33984375t-0.5390625,0.05859375q-0.140625,0-0.4453125-0.1171875q-1.734375,0.9140625-2.953125,2.484375t-1.9921875,3.48046875t-1.125,4.03125t-0.3515625,4.13671875q0,1.0078125-0.45703125,1.21875t-1.46484375,0.2109375q-0.5390625,0-1.13671875-0.1171875t-0.83203125-0.75q-0.421875-1.3359375-0.69140625-3.0703125t-0.41015625-3.57421875t-0.19921875-3.62109375t-0.05859375-3.2109375z M172.875703125,58.671875q0.09375-4.8984375,0.41015625-9.7734375t0.55078125-9.7734375q0.046875-1.875,0.046875-3.41015625t0.15234375-2.66015625t0.5625-1.72265625t1.37109375-0.59765625q0.8203125,0,1.2421875,0.234375t0.64453125,0.59765625t0.26953125,0.8203125t0.046875,0.92578125q0,0.6796875,0.046875,1.34765625t0.046875,1.34765625q0,4.9453125-0.26953125,9.8671875t-0.26953125,9.9140625q0,0.7265625,0.0234375,1.46484375t0.0234375,1.51171875q0,0.28125-0.2578125,0.46875t-0.64453125,0.31640625t-0.8203125,0.17578125t-0.71484375,0.046875q-0.328125,0-0.73828125-0.046875t-0.796875-0.19921875t-0.65625-0.36328125t-0.26953125-0.4921875z M174.188203125,26.890625q0-0.234375,0.0703125-0.52734375t0.1640625-0.52734375q0.046875-0.28125,0.140625-0.9609375t0.33984375-1.32421875t0.6796875-1.1484375t1.23046875-0.50390625l0.4453125,0q0.375,0.09375,0.76171875,0.234375t0.38671875,0.6796875q0,0.234375-0.0234375,0.4453125t-0.0703125,0.46875q-0.1875,1.3828125-0.36328125,2.1796875t-0.41015625,1.20703125t-0.59765625,0.52734375t-0.92578125,0.1640625q-0.1875,0-0.50390625-0.0234375t-0.609375-0.1171875t-0.50390625-0.29296875t-0.2109375-0.48046875z M183.20390625,44.2109375q0-0.9609375,0.5625-1.65234375t1.37109375-1.125t1.76953125-0.64453125t1.78125-0.2109375q0.6328125,0,1.6875,0.1875t2.0625,0.5625t1.74609375,0.984375t0.73828125,1.4296875q0,0.375-0.28125,0.66796875t-0.5859375,0.29296875q-0.6328125,0-1.1484375-0.41015625t-1.06640625-0.8671875t-1.20703125-0.8671875t-1.4765625-0.41015625t-1.48828125,0.52734375t-0.66796875,1.39453125q0,1.4296875,1.0078125,2.80078125t2.21484375,2.8828125t2.21484375,3.17578125t1.0078125,3.6796875q0,0.8671875-0.36328125,1.46484375t-0.9609375,0.97265625t-1.34765625,0.57421875t-1.453125,0.19921875q-0.7734375,0-1.8046875-0.36328125t-1.9453125-0.9609375t-1.53515625-1.39453125t-0.62109375-1.6640625q0-0.421875,0.59765625-0.5390625t0.87890625-0.1171875q0.140625,0,0.43359375,0.09375t0.57421875,0.2109375t0.50390625,0.2578125t0.17578125,0.3046875q0.234375,0.28125,0.71484375,0.83203125t0.9609375,0.890625t0.84375,0.24609375t0.36328125-1.0546875q0-1.828125-0.984375-3.36328125t-2.14453125-3t-2.14453125-2.90625t-0.984375-3.08203125z M199.719609375,58.578125q0-0.6796875,0.05859375-1.4296875t0.10546875-1.40625l0.140625-3.515625q0.234375-4.21875,0.57421875-8.296875t0.57421875-8.25q0.140625-2.296875,0.2109375-4.51171875t0.2109375-4.51171875q-0.09375-0.1875-0.09375-0.2578125q0-0.328125,0.24609375-0.515625t0.57421875-0.31640625t0.69140625-0.17578125t0.55078125-0.046875l0.5390625,0q0.7265625,0.09375,1.0546875,0.45703125t0.421875,0.8671875t0.046875,1.078125t-0.046875,1.06640625q0,3.3984375-0.1640625,6.92578125t-0.375,7.078125t-0.38671875,7.1015625t-0.17578125,7.01953125l0,1.640625q0,1.1015625-0.62109375,1.453125t-1.72265625,0.3515625q-0.9609375,0-1.6875-0.421875t-0.7265625-1.3828125z M210.4696875,50.2578125q0-1.59375,0.43359375-3.0703125t1.30078125-2.63671875t2.16796875-1.8515625t3.01171875-0.69140625q1.0546875,0,2.33203125,0.31640625t2.40234375,0.9375t1.875,1.58203125t0.75,2.203125q0,0.5859375-0.19921875,0.890625t-0.80859375,0.3046875l-0.2578125-0.046875q0.6796875,1.828125,1.171875,3.75t0.9609375,3.84375q0.1875,0.375,0.28125,0.66796875t0.09375,0.57421875q0,0.375-0.2109375,0.62109375t-0.55078125,0.36328125t-0.703125,0.1640625t-0.64453125,0.046875q-1.0078125,0-1.51171875-0.3515625t-0.7265625-0.9609375t-0.26953125-1.37109375t-0.1875-1.53515625q-0.28125,0.9140625-0.73828125,1.78125t-1.078125,1.55859375t-1.46484375,1.1015625t-1.8984375,0.41015625q-1.546875,0-2.6015625-0.890625t-1.69921875-2.19140625t-0.9375-2.77734375t-0.29296875-2.7421875z M213.7978125,49.9296875q0,0.8671875,0.1171875,1.828125t0.38671875,1.8984375t0.69140625,1.76953125t1.0546875,1.46484375q1.1484375-1.2421875,1.69921875-3.0234375t0.984375-3.43359375t0.984375-2.8359375t1.69921875-1.18359375q0.7265625,0,1.21875,0.2578125q-0.234375-0.5859375-0.7734375-1.13671875t-1.20703125-1.0078125t-1.3828125-0.75t-1.34765625-0.29296875q-0.1875,0-0.43359375,0.05859375t-0.38671875,0.01171875q-0.9609375,0.28125-1.58203125,0.97265625t-1.0078125,1.62890625t-0.55078125,1.921875t-0.1640625,1.8515625z M230.805703125,50.375l0-0.6796875q0-0.84375,0.046875-1.59375q0.046875-1.0546875,0.046875-1.734375q0-0.375,0.046875-0.85546875t0.234375-0.76171875q0.234375-0.234375,0.55078125-0.48046875t0.69140625-0.24609375q1.1953125,0,1.875,0.26953125t0.7265625,1.11328125l0.09375,0.7265625q0.421875-1.0078125,1.125-2.49609375t1.62890625-2.8359375t2.0859375-2.296875t2.44921875-0.94921875q1.1953125,0,1.96875,1.125t1.23046875,2.87109375t0.64453125,3.890625t0.2578125,4.20703125t0.09375,3.76171875t0.1640625,2.56640625q0.09375,0.7265625,0.31640625,1.53515625t0.22265625,1.48828125q0,0.1875-0.26953125,0.36328125t-0.57421875,0.29296875t-0.62109375,0.1875t-0.45703125,0.0703125q-0.9140625,0-1.30078125-1.37109375t-0.48046875-3.43359375t-0.09375-4.46484375t-0.1640625-4.46484375t-0.66796875-3.43359375t-1.60546875-1.41796875q-1.0078125,0-2.0859375,1.30078125t-1.8515625,3.45703125q-0.75,2.15625-1.03125,4.8984375q-0.09375,0.8671875-0.09375,1.734375q0,1.8984375,0.3984375,3.796875q0.046875,0.328125-0.26953125,0.4921875t-0.78515625,0.2578125t-0.94921875,0.1171875t-0.73828125,0.0234375q-0.9140625,0-1.46484375-0.64453125t-0.85546875-1.65234375t-0.41015625-2.26171875t-0.12890625-2.47265625z M252.10265625,49.9765625q0-1.828125,0.38671875-3.31640625t1.23046875-2.51953125t2.21484375-1.60546875t3.33984375-0.57421875q1.1015625,0,2.25,0.29296875t1.96875,1.08984375q0-0.46875,0.09375-1.93359375t0.234375-3.41015625t0.29296875-4.078125t0.26953125-3.9609375t0.2109375-3.0703125t0.140625-1.40625q0.234375-0.6796875,0.8671875-0.80859375t1.1953125-0.12890625q1.4765625,0,1.81640625,0.46875t0.33984375,1.875q0,5.1328125-0.45703125,10.21875t-0.45703125,10.21875q0,3.3046875,0.12890625,6.64453125t0.92578125,6.57421875l0.2578125,0.234375l0.140625,0.421875l-0.3515625,0.5390625q-0.890625,0.5625-2.0625,0.5625l-0.09375,0q-1.1953125,0-2.203125-0.5625q-0.375-0.234375-0.62109375-1.39453125t-0.38671875-2.5546875t-0.2109375-2.68359375t-0.1171875-1.828125q-0.8203125,1.875-2.23828125,3.22265625t-3.57421875,1.34765625q-1.6875,0-2.765625-0.7265625t-1.67578125-1.8515625t-0.84375-2.51953125t-0.24609375-2.77734375z M254.93859375,50.1171875q0,0.5390625,0.12890625,1.59375t0.41015625,2.109375t0.78515625,1.875t1.32421875,0.8203125q1.1015625-0.5390625,1.9921875-1.79296875t1.53515625-2.765625t1.0078125-3.0234375t0.36328125-2.61328125q0-1.3828125-1.0078125-2.296875t-2.4140625-0.9140625q-0.421875,0-0.85546875,0.1640625t-0.80859375,0.375q-0.8671875,0.8203125-1.34765625,1.48828125t-0.7265625,1.3828125t-0.31640625,1.58203125t-0.0703125,2.015625z"/><path fill="#" d=""/></svg>
